<?xml version="1.0" encoding="UTF-8" standalone="no"?>
<!-- Created with Inkscape (http://www.inkscape.org/) -->

<svg
   xmlns:dc="http://purl.org/dc/elements/1.1/"
   xmlns:cc="http://creativecommons.org/ns#"
   xmlns:rdf="http://www.w3.org/1999/02/22-rdf-syntax-ns#"
   xmlns:svg="http://www.w3.org/2000/svg"
   xmlns="http://www.w3.org/2000/svg"
   xmlns:xlink="http://www.w3.org/1999/xlink"
   xmlns:sodipodi="http://sodipodi.sourceforge.net/DTD/sodipodi-0.dtd"
   xmlns:inkscape="http://www.inkscape.org/namespaces/inkscape"
   width="147.39845mm"
   height="46.998371mm"
   viewBox="0 0 147.39845 46.998371"
   version="1.1"
   id="svg8"
   inkscape:version="0.92.1 r15371"
   sodipodi:docname="logo.svg">
  <defs
     id="defs2">
    <linearGradient
       inkscape:collect="always"
       id="linearGradient10895">
      <stop
         style="stop-color:#ffcc00;stop-opacity:1;"
         offset="0"
         id="stop10891" />
      <stop
         id="stop10903"
         offset="0.0810447"
         style="stop-color:#ffdd55;stop-opacity:1" />
      <stop
         style="stop-color:#ffcc00;stop-opacity:1"
         offset="0.13800372"
         id="stop10905" />
      <stop
         id="stop10907"
         offset="0.19281335"
         style="stop-color:#ffe680;stop-opacity:1" />
      <stop
         style="stop-color:#ffcc00;stop-opacity:1"
         offset="0.26051936"
         id="stop10909" />
      <stop
         id="stop10911"
         offset="0.32822537"
         style="stop-color:#ffe680;stop-opacity:1" />
      <stop
         style="stop-color:#ffcc00;stop-opacity:1"
         offset="0.3808856"
         id="stop10913" />
      <stop
         id="stop10915"
         offset="0.45289043"
         style="stop-color:#ffe680;stop-opacity:1" />
      <stop
         style="stop-color:#ffcc00;stop-opacity:1"
         offset="0.51414824"
         id="stop10917" />
      <stop
         id="stop10919"
         offset="0.56465906"
         style="stop-color:#ffe680;stop-opacity:1" />
      <stop
         style="stop-color:#ffcc00;stop-opacity:1"
         offset="0.63558918"
         id="stop10921" />
      <stop
         id="stop10923"
         offset="0.66353136"
         style="stop-color:#ffdd55;stop-opacity:1" />
      <stop
         style="stop-color:#ffdd55;stop-opacity:1"
         offset="0.69362289"
         id="stop10925" />
      <stop
         id="stop10931"
         offset="0.71081805"
         style="stop-color:#ffe680;stop-opacity:1" />
      <stop
         id="stop10929"
         offset="0.71726626"
         style="stop-color:#ffeeaa;stop-opacity:1" />
      <stop
         id="stop10927"
         offset="0.73231202"
         style="stop-color:#ffdd55;stop-opacity:1" />
      <stop
         style="stop-color:#ffd42a;stop-opacity:1"
         offset="0.76455301"
         id="stop10933" />
      <stop
         id="stop10935"
         offset="0.78389758"
         style="stop-color:#ffcc00;stop-opacity:1" />
      <stop
         style="stop-color:#ffdd55;stop-opacity:1"
         offset="0.80754095"
         id="stop10937" />
      <stop
         id="stop10901"
         offset="0.83118433"
         style="stop-color:#ffdd55;stop-opacity:1" />
      <stop
         style="stop-color:#ffe680;stop-opacity:1"
         offset="0.85805178"
         id="stop10939" />
      <stop
         id="stop10899"
         offset="0.88276988"
         style="stop-color:#ffe680;stop-opacity:1" />
      <stop
         style="stop-color:#ffdd55;stop-opacity:1"
         offset="0.90426385"
         id="stop10941" />
      <stop
         id="stop10943"
         offset="0.97196984"
         style="stop-color:#ffcc00;stop-opacity:1" />
      <stop
         style="stop-color:#ffcc00;stop-opacity:0;"
         offset="1"
         id="stop10893" />
    </linearGradient>
    <linearGradient
       inkscape:collect="always"
       xlink:href="#linearGradient10895"
       id="linearGradient19388"
       gradientUnits="userSpaceOnUse"
       x1="164.87335"
       y1="728.85516"
       x2="331.0329"
       y2="728.85516" />
  </defs>
  <sodipodi:namedview
     id="base"
     pagecolor="#ffffff"
     bordercolor="#666666"
     borderopacity="1.0"
     inkscape:pageopacity="0.0"
     inkscape:pageshadow="2"
     inkscape:zoom="1.979899"
     inkscape:cx="290.25074"
     inkscape:cy="8.7194712"
     inkscape:document-units="mm"
     inkscape:current-layer="layer1"
     showgrid="false"
     inkscape:window-width="1920"
     inkscape:window-height="1013"
     inkscape:window-x="2391"
     inkscape:window-y="122"
     inkscape:window-maximized="1" />
  <metadata
     id="metadata5">
    <rdf:RDF>
      <cc:Work
         rdf:about="">
        <dc:format>image/svg+xml</dc:format>
        <dc:type
           rdf:resource="http://purl.org/dc/dcmitype/StillImage" />
        <dc:title></dc:title>
      </cc:Work>
    </rdf:RDF>
  </metadata>
  <g
     inkscape:label="Layer 1"
     inkscape:groupmode="layer"
     id="layer1"
     transform="translate(-25.271939,-191.35987)">
    <path
       style="display:inline;opacity:1;fill:#ffffff;fill-opacity:1;fill-rule:nonzero;stroke:none;stroke-width:0.41727445;stroke-linecap:square;stroke-linejoin:miter;stroke-miterlimit:4;stroke-dasharray:none;stroke-dashoffset:0;stroke-opacity:1;paint-order:fill markers stroke"
       d="m 59.725533,221.53834 c -0.906952,0.63748 -1.856351,1.30304 -2.742008,1.92658 0.804855,2.41403 1.539929,4.61645 2.346898,7.03991 -2.185092,-1.54999 -4.114273,-2.91304 -6.154197,-4.35785 -0.8804,0.62044 -1.793826,1.26551 -2.6865,1.89514 0.0051,0.004 0.008,0.009 0.01224,0.013 0.0022,0.001 0.0043,0.002 0.0065,0.004 0.0058,0.004 0.01014,0.007 0.01513,0.0101 0.0043,0.003 0.0085,0.007 0.0126,0.009 0.0043,0.004 0.0085,0.007 0.0126,0.0108 0.0036,0.003 0.0065,0.006 0.0094,0.008 0.0014,7.2e-4 0.0043,0.003 0.0058,0.004 0.0036,0.003 0.0029,0.002 0.0072,0.006 3.84e-4,1.8e-4 3.84e-4,5.8e-4 7.24e-4,7.3e-4 3.84e-4,1.8e-4 3.84e-4,5.7e-4 7.24e-4,7.2e-4 l 0.0022,-0.001 14.712605,10.25077 -5.528716,-16.72031 0.0029,-0.002 c -0.0043,-0.008 -0.0085,-0.0176 -0.01122,-0.029 -5.79e-4,-0.002 -7.24e-4,-0.004 -0.0014,-0.007 -5.79e-4,-0.003 -0.0014,-0.006 -0.0022,-0.008 -7.24e-4,-0.004 -0.0014,-0.008 -0.0029,-0.0116 -5.79e-4,-0.002 -0.0014,-0.005 -0.0022,-0.007 -1.81e-4,-7.3e-4 -3.84e-4,-0.001 -7.24e-4,-0.003 -5.79e-4,-0.001 -0.0014,-0.002 -0.0022,-0.004 -0.0022,-0.004 -0.0036,-0.007 -0.0058,-0.0108 -0.0022,-0.004 -0.0043,-0.008 -0.0065,-0.013 -7.24e-4,-0.001 -0.0014,-0.004 -0.0022,-0.005 z"
       id="path7501-15"
       inkscape:connector-curvature="0"
       inkscape:export-filename="D:\WYCIECZKI PRZEWODNICKIE (PRACA)\StarTravel\logo\nowe logo strona.png"
       inkscape:export-xdpi="300.01999"
       inkscape:export-ydpi="300.01999" />
    <path
       style="display:inline;opacity:1;fill:#ffffff;fill-opacity:1;fill-rule:nonzero;stroke:none;stroke-width:0.42620453;stroke-linecap:square;stroke-linejoin:miter;stroke-miterlimit:4;stroke-dasharray:none;stroke-dashoffset:0;stroke-opacity:1;paint-order:fill markers stroke"
       d="m 44.081509,208.20799 c 1.163008,0.004 2.379345,0.008 3.515698,0.0101 0.849966,-2.42193 1.624779,-4.63198 2.47893,-7.06278 0.852935,2.51285 1.609399,4.72701 2.407063,7.07113 1.129982,0.002 2.303213,0.003 3.449299,0.004 -0.0014,-0.007 -0.0014,-0.0116 -0.0014,-0.0175 -5.72e-4,-0.002 -0.0022,-0.004 -0.0029,-0.007 -0.0022,-0.007 -0.0043,-0.0113 -0.0065,-0.017 -0.0022,-0.005 -0.0029,-0.01 -0.0051,-0.0146 -0.0014,-0.005 -0.0022,-0.0107 -0.0043,-0.016 -0.0014,-0.004 -0.0014,-0.008 -0.0029,-0.0122 -5.72e-4,-0.001 -0.0022,-0.005 -0.0014,-0.007 -0.0014,-0.004 -0.0014,-0.004 -0.0022,-0.009 -1.88e-4,-3.4e-4 2.9e-5,-6.5e-4 -1.66e-4,-6.7e-4 -1.96e-4,-3.6e-4 2.1e-5,-6.3e-4 -1.74e-4,-6.9e-4 l -0.0029,-1.2e-4 -5.859765,-16.76879 -5.925658,16.74859 -0.0036,6e-5 c -0.0022,0.009 -0.0043,0.0191 -0.0091,0.0299 -7.25e-4,0.002 -0.0014,0.004 -0.0029,0.007 -7.24e-4,0.003 -0.0022,0.006 -0.0036,0.008 -0.0014,0.004 -0.0036,0.007 -0.0051,0.011 -7.24e-4,0.002 -0.0014,0.005 -0.0029,0.007 -2.68e-4,6.7e-4 -5.58e-4,10e-4 -7.24e-4,0.003 -3.84e-4,0.001 -1.31e-4,0.003 -4.06e-4,0.004 -3.84e-4,0.004 -0.0022,0.008 -0.0022,0.012 -7.24e-4,0.005 -0.0022,0.009 -0.0029,0.014 -2.46e-4,0.001 -7.24e-4,0.004 -7.24e-4,0.006 z"
       id="path7501-1-4"
       inkscape:connector-curvature="0"
       inkscape:export-filename="D:\WYCIECZKI PRZEWODNICKIE (PRACA)\StarTravel\logo\nowe logo strona.png"
       inkscape:export-xdpi="300.01999"
       inkscape:export-ydpi="300.01999" />
    <path
       style="display:inline;opacity:1;fill:#ffffff;fill-opacity:1;fill-rule:nonzero;stroke:none;stroke-width:0.3072733;stroke-linecap:square;stroke-linejoin:miter;stroke-miterlimit:4;stroke-dasharray:none;stroke-dashoffset:0;stroke-opacity:1;paint-order:fill markers stroke"
       d="m 61.99496,213.19036 c -28.262048,-2.31356 0,2e-5 -28.262048,-2.31356 l 22.146641,4.22822 -17.209918,17.72751 23.325325,-19.64215 z"
       id="path5124-9-5-3"
       inkscape:connector-curvature="0"
       sodipodi:nodetypes="cccccc"
       inkscape:export-filename="D:\WYCIECZKI PRZEWODNICKIE (PRACA)\StarTravel\logo\nowe logo strona.png"
       inkscape:export-xdpi="300.01999"
       inkscape:export-ydpi="300.01999" />
    <g
       aria-label="Star  Cab"
       transform="matrix(0.6965486,0,0,0.6999234,-36.650626,-294.00069)"
       style="font-style:normal;font-weight:normal;font-size:40px;line-height:1.25;font-family:sans-serif;letter-spacing:0px;word-spacing:0px;fill:#ffffff;fill-opacity:1;stroke:none;stroke-width:0.28643695;stroke-miterlimit:4;stroke-dasharray:none;stroke-opacity:1"
       id="flowRoot8337">
      <path
         d="m 173.05078,739.14165 q -2.48698,0 -4.4401,-0.42969 -1.94011,-0.42968 -3.35938,-1.06771 l 1.00261,-4.64843 h 0.54687 q 1.34115,1.22395 3.15104,1.90104 1.8099,0.66406 3.89323,0.66406 2.13542,0 3.13802,-0.57292 1.00261,-0.58593 1.00261,-1.66666 0,-0.40365 -0.16927,-0.69011 -0.15625,-0.29948 -0.625,-0.58593 -0.46875,-0.28646 -1.28907,-0.5599 -0.80729,-0.28646 -2.09635,-0.65104 -1.41927,-0.39063 -2.55208,-0.84636 -1.1198,-0.45573 -1.91407,-1.08073 -0.79427,-0.63802 -1.21093,-1.47135 -0.40365,-0.83333 -0.40365,-1.99219 0,-2.91666 2.5651,-4.64843 2.57813,-1.7448 7.04428,-1.7448 2.14843,0 4.04948,0.35157 1.91406,0.35156 3.24218,0.95052 l -0.95052,4.46614 h -0.53385 q -1.01563,-0.9375 -2.68229,-1.5625 -1.65365,-0.63802 -3.6198,-0.63802 -1.92708,0 -2.98177,0.5599 -1.05468,0.55989 -1.05468,1.54948 0,0.45573 0.15625,0.75521 0.15625,0.29947 0.63802,0.58593 0.41666,0.26042 1.3151,0.57292 0.89844,0.29948 2.10938,0.625 3.2552,0.8724 4.64843,2.04427 1.39323,1.17188 1.39323,3.17708 0,1.67969 -0.75521,2.95573 -0.7552,1.27605 -2.08333,2.07032 -1.39323,0.84635 -3.16406,1.23698 -1.77083,0.39062 -4.01042,0.39062 z"
         style="font-style:italic;font-variant:normal;font-weight:bold;font-stretch:normal;font-size:26.66666794px;font-family:'Terminal Greek 737 (437G)';-inkscape-font-specification:'Terminal Greek 737 (437G) Bold Italic';fill:#ffffff;fill-opacity:1;stroke:none;stroke-width:0.28643695;stroke-miterlimit:4;stroke-dasharray:none;stroke-opacity:1"
         id="path4561" />
      <path
         d="m 190.2513,739.07655 q -2.43489,0 -3.47656,-0.79427 -1.04167,-0.8073 -1.04167,-2.38282 0,-0.41666 0.0651,-0.80729 0.0651,-0.39062 0.16927,-0.91146 l 1.58854,-6.92708 h -1.92708 l 0.71614,-3.08594 h 1.92709 l 0.96354,-4.17969 h 4.70052 l -0.96354,4.17969 h 4.40104 l -0.71615,3.08594 h -4.40104 l -1.21094,5.27344 q -0.1302,0.54687 -0.24739,1.10677 -0.11719,0.54687 -0.11719,0.9375 0,0.78125 0.42969,1.09375 0.44271,0.29948 1.35416,0.29948 0.36459,0 0.95053,-0.13021 0.59895,-0.14323 0.95052,-0.3125 h 0.39062 l -0.72917,3.13802 q -0.79427,0.19531 -1.67968,0.29948 -0.8724,0.11719 -2.09636,0.11719 z"
         style="font-style:italic;font-variant:normal;font-weight:bold;font-stretch:normal;font-size:26.66666794px;font-family:'Terminal Greek 737 (437G)';-inkscape-font-specification:'Terminal Greek 737 (437G) Bold Italic';fill:#ffffff;fill-opacity:1;stroke:none;stroke-width:0.28643695;stroke-miterlimit:4;stroke-dasharray:none;stroke-opacity:1"
         id="path4563" />
      <path
         d="m 207.23047,731.88905 q -1.25,0.10416 -2.34375,0.24739 -1.09375,0.14323 -1.86198,0.41667 -0.79427,0.28646 -1.21094,0.80729 -0.41666,0.52083 -0.41666,1.38021 0,0.75521 0.54687,1.06771 0.5599,0.29948 1.61458,0.29948 0.69011,0 1.47136,-0.3125 0.79427,-0.32552 1.48437,-0.82032 z m -1.23698,5.35156 q -0.44271,0.28646 -1.06771,0.6901 -0.625,0.40365 -1.15885,0.63802 -0.72917,0.29948 -1.36719,0.45573 -0.63802,0.15625 -1.77083,0.15625 -1.82292,0 -2.98177,-1.01562 -1.14584,-1.02865 -1.14584,-2.66927 0,-1.73177 0.82031,-2.92969 0.82032,-1.21094 2.4349,-1.92708 1.51042,-0.67709 3.59375,-0.97657 2.09636,-0.29948 4.53125,-0.44271 0.013,-0.0781 0.0521,-0.24739 0.0391,-0.18229 0.0391,-0.40365 0,-0.92448 -0.85938,-1.28906 -0.85937,-0.3776 -2.5651,-0.3776 -1.15886,0 -2.56511,0.39062 -1.39323,0.39063 -2.09635,0.65104 h -0.42969 l 0.69011,-3.46354 q 0.82031,-0.20833 2.53906,-0.46875 1.71875,-0.26042 3.42448,-0.26042 3.4375,0 5.03906,0.89844 1.61458,0.89844 1.61458,2.78646 0,0.26042 -0.0521,0.67708 -0.0391,0.41667 -0.11719,0.72917 l -2.29166,9.94792 h -4.66146 z"
         style="font-style:italic;font-variant:normal;font-weight:bold;font-stretch:normal;font-size:26.66666794px;font-family:'Terminal Greek 737 (437G)';-inkscape-font-specification:'Terminal Greek 737 (437G) Bold Italic';fill:#ffffff;fill-opacity:1;stroke:none;stroke-width:0.28643695;stroke-miterlimit:4;stroke-dasharray:none;stroke-opacity:1"
         id="path4565" />
      <path
         d="m 227.55599,728.63384 h -0.41667 q -0.3125,-0.10417 -0.88541,-0.15625 -0.57292,-0.0521 -1.13282,-0.0521 -0.92447,0 -1.78385,0.14323 -0.85938,0.13021 -1.77083,0.42969 l -2.26563,9.79167 h -4.71354 l 3.38542,-14.6224 h 4.71354 l -0.49479,2.14844 q 1.32812,-0.97656 2.64323,-1.58854 1.32812,-0.61198 2.66927,-0.61198 0.24739,0 0.54687,0.013 0.3125,0.013 0.54688,0.0391 z"
         style="font-style:italic;font-variant:normal;font-weight:bold;font-stretch:normal;font-size:26.66666794px;font-family:'Terminal Greek 737 (437G)';-inkscape-font-specification:'Terminal Greek 737 (437G) Bold Italic';fill:#ffffff;fill-opacity:1;stroke:none;stroke-width:0.28643695;stroke-miterlimit:4;stroke-dasharray:none;stroke-opacity:1"
         id="path4567" />
      <path
         d="m 255.31641,739.16769 q -3.93229,0 -6.06771,-1.92708 -2.13541,-1.94011 -2.13541,-5.54688 0,-2.85156 0.9375,-5.16927 0.95052,-2.31771 2.60416,-4.01041 1.61459,-1.64063 3.86719,-2.56511 2.26563,-0.92448 4.75261,-0.92448 2.0052,0 3.72395,0.41667 1.71875,0.40364 3.09896,1.19792 l -1.14583,4.70052 h -0.57292 q -1.23698,-1.32813 -2.46094,-1.95313 -1.22395,-0.625 -2.8776,-0.625 -2.90365,0 -4.79167,2.33073 -1.875,2.33073 -1.875,5.9375 0,2.31771 1.04167,3.35938 1.04167,1.04166 3.04688,1.04166 1.79687,0 3.37239,-0.71614 1.57552,-0.72917 2.98177,-1.84896 h 0.52084 l -1.13282,4.63542 q -0.58593,0.23437 -1.36718,0.57291 -0.78125,0.32552 -1.4974,0.53386 -0.9375,0.27343 -1.75781,0.41666 -0.80729,0.14323 -2.26563,0.14323 z"
         style="font-style:italic;font-variant:normal;font-weight:bold;font-stretch:normal;font-size:26.66666794px;font-family:'Terminal Greek 737 (437G)';-inkscape-font-specification:'Terminal Greek 737 (437G) Bold Italic';fill:#ffffff;fill-opacity:1;stroke:none;stroke-width:0.28643695;stroke-miterlimit:4;stroke-dasharray:none;stroke-opacity:1"
         id="path4569" />
      <path
         d="m 275.87631,731.88905 q -1.25,0.10416 -2.34375,0.24739 -1.09376,0.14323 -1.86198,0.41667 -0.79428,0.28646 -1.21094,0.80729 -0.41667,0.52083 -0.41667,1.38021 0,0.75521 0.54688,1.06771 0.55989,0.29948 1.61458,0.29948 0.6901,0 1.47135,-0.3125 0.79428,-0.32552 1.48438,-0.82032 z m -1.23698,5.35156 q -0.44271,0.28646 -1.06771,0.6901 -0.625,0.40365 -1.15886,0.63802 -0.72916,0.29948 -1.36718,0.45573 -0.63803,0.15625 -1.77084,0.15625 -1.82291,0 -2.98177,-1.01562 -1.14583,-1.02865 -1.14583,-2.66927 0,-1.73177 0.82031,-2.92969 0.82031,-1.21094 2.4349,-1.92708 1.51041,-0.67709 3.59375,-0.97657 2.09635,-0.29948 4.53125,-0.44271 0.013,-0.0781 0.0521,-0.24739 0.0391,-0.18229 0.0391,-0.40365 0,-0.92448 -0.85937,-1.28906 -0.85938,-0.3776 -2.56511,-0.3776 -1.15885,0 -2.5651,0.39062 -1.39323,0.39063 -2.09636,0.65104 h -0.42968 l 0.6901,-3.46354 q 0.82031,-0.20833 2.53906,-0.46875 1.71875,-0.26042 3.42448,-0.26042 3.4375,0 5.03907,0.89844 1.61458,0.89844 1.61458,2.78646 0,0.26042 -0.0521,0.67708 -0.0391,0.41667 -0.11719,0.72917 l -2.29167,9.94792 h -4.66146 z"
         style="font-style:italic;font-variant:normal;font-weight:bold;font-stretch:normal;font-size:26.66666794px;font-family:'Terminal Greek 737 (437G)';-inkscape-font-specification:'Terminal Greek 737 (437G) Bold Italic';fill:#ffffff;fill-opacity:1;stroke:none;stroke-width:0.28643695;stroke-miterlimit:4;stroke-dasharray:none;stroke-opacity:1"
         id="path4571" />
      <path
         d="m 300.51172,728.84217 q 0,1.99219 -0.65104,3.86719 -0.63802,1.875 -1.75781,3.26823 -1.14584,1.41927 -2.68229,2.26562 -1.53646,0.83334 -3.39844,0.83334 -1.22396,0 -2.20052,-0.2474 -0.96354,-0.2474 -1.71875,-0.76823 l -0.35157,0.72917 h -4.51822 l 4.67447,-20.26042 h 4.71355 l -1.65365,7.16146 q 1.26302,-0.8724 2.39583,-1.39323 1.14584,-0.53385 2.55209,-0.53385 2.26562,0 3.42448,1.35416 1.17187,1.34115 1.17187,3.72396 z m -4.96094,0.8724 q 0,-1.22396 -0.53385,-1.86198 -0.53385,-0.63802 -1.84896,-0.63802 -0.6901,0 -1.35416,0.24739 -0.66407,0.23438 -1.40626,0.625 l -1.6927,7.34375 q 0.45573,0.18229 0.96354,0.29948 0.50781,0.10417 1.14583,0.10417 2.17448,0 3.45052,-1.70573 1.27604,-1.71875 1.27604,-4.41406 z"
         style="font-style:italic;font-variant:normal;font-weight:bold;font-stretch:normal;font-size:26.66666794px;font-family:'Terminal Greek 737 (437G)';-inkscape-font-specification:'Terminal Greek 737 (437G) Bold Italic';fill:#ffffff;fill-opacity:1;stroke:none;stroke-width:0.28643695;stroke-miterlimit:4;stroke-dasharray:none;stroke-opacity:1"
         id="path4573" />
    </g>
    <path
       style="display:inline;opacity:1;fill:#ffffff;fill-opacity:1;fill-rule:nonzero;stroke:none;stroke-width:0.30000001;stroke-linecap:square;stroke-linejoin:miter;stroke-miterlimit:4;stroke-dasharray:none;stroke-dashoffset:0;stroke-opacity:0;paint-order:fill markers stroke"
       d="m 74.676634,209.20833 c -17.005616,0 0,0 -49.404695,0.018 l 39.477137,3.21165 -30.031154,25.82453 c 39.958712,-29.05418 25.91035,-18.88115 39.958712,-29.05418 z"
       id="path5124-9-5"
       inkscape:connector-curvature="0"
       sodipodi:nodetypes="ccccc"
       inkscape:export-filename="D:\WYCIECZKI PRZEWODNICKIE (PRACA)\StarTravel\logo\nowe logo strona.png"
       inkscape:export-xdpi="300.01999"
       inkscape:export-ydpi="300.01999" />
    <rect
       style="opacity:1;fill:#ffffff;fill-opacity:1;fill-rule:nonzero;stroke:none;stroke-width:0.15128808;stroke-linecap:square;stroke-linejoin:miter;stroke-miterlimit:4;stroke-dasharray:none;stroke-dashoffset:0;stroke-opacity:1;paint-order:fill markers stroke"
       id="rect10991"
       width="94.095543"
       height="1.7145033"
       x="78.427536"
       y="226.46585"
       ry="0.56696969"
       rx="0.56696975"
       inkscape:export-filename="D:\WYCIECZKI PRZEWODNICKIE (PRACA)\StarTravel\logo\nowe logo strona.png"
       inkscape:export-xdpi="300.01999"
       inkscape:export-ydpi="300.01999" />
    <g
       aria-label=" wherever You need to go"
       transform="matrix(0.70018409,0,0,0.6999234,-40.924987,-282.96789)"
       style="font-style:normal;font-weight:normal;font-size:40px;line-height:1.25;font-family:sans-serif;letter-spacing:1.52999997px;word-spacing:0px;fill:#ffffff;fill-opacity:1;stroke:none;stroke-width:0.28433824;stroke-miterlimit:4;stroke-dasharray:none;stroke-opacity:1"
       id="flowRoot8337-5">
      <path
         d="m 176.16281,734.42681 -2.02734,4.36328 h -0.6875 l -0.4375,-3.3711 -1.80078,3.3711 H 170.53 l -0.27344,-4.36328 h 0.75 l 0.11328,3.375 1.78125,-3.375 h 0.61328 l 0.42579,3.375 1.45312,-3.375 z"
         style="font-style:italic;font-variant:normal;font-weight:normal;font-stretch:normal;font-size:8px;font-family:'Terminal Greek 737 (437G)';-inkscape-font-specification:'Terminal Greek 737 (437G) Italic';letter-spacing:1.52999997px;fill:#ffffff;fill-opacity:1;stroke:none;stroke-width:0.28433824;stroke-miterlimit:4;stroke-dasharray:none;stroke-opacity:1"
         id="path4522" />
      <path
         d="m 182.16937,735.4229 q 0,0.0937 -0.0195,0.25391 -0.0156,0.16015 -0.0469,0.28125 l -0.65625,2.83203 h -0.73438 l 0.57422,-2.48438 q 0.0469,-0.20703 0.0703,-0.35937 0.0274,-0.15625 0.0274,-0.3086 0,-0.32812 -0.16406,-0.49218 -0.16016,-0.16797 -0.58204,-0.16797 -0.29687,0 -0.65625,0.16406 -0.35546,0.16406 -0.69531,0.39063 l -0.7539,3.25781 h -0.73438 l 1.40234,-6.07813 h 0.73438 l -0.50781,2.19922 q 0.41797,-0.29297 0.78125,-0.44922 0.36718,-0.15625 0.7539,-0.15625 0.57032,0 0.88672,0.28907 0.32031,0.28515 0.32031,0.82812 z"
         style="font-style:italic;font-variant:normal;font-weight:normal;font-stretch:normal;font-size:8px;font-family:'Terminal Greek 737 (437G)';-inkscape-font-specification:'Terminal Greek 737 (437G) Italic';letter-spacing:1.52999997px;fill:#ffffff;fill-opacity:1;stroke:none;stroke-width:0.28433824;stroke-miterlimit:4;stroke-dasharray:none;stroke-opacity:1"
         id="path4524" />
      <path
         d="m 187.92203,736.13384 q 0.0195,-0.11328 0.0273,-0.19141 0.008,-0.0781 0.008,-0.17187 0,-0.41797 -0.23047,-0.65235 -0.22656,-0.23437 -0.73047,-0.23437 -0.55469,0 -0.98437,0.34375 -0.42969,0.34375 -0.58204,0.90625 z m -1.46875,2.75781 q -0.90625,0 -1.42187,-0.42578 -0.51563,-0.42578 -0.51563,-1.24609 0,-1.19922 0.75781,-2.05469 0.75782,-0.85938 1.875,-0.85938 0.74219,0 1.13672,0.3711 0.39453,0.36718 0.39453,1.03515 0,0.11719 -0.0352,0.3711 -0.0312,0.2539 -0.10547,0.58984 h -3.21484 q -0.0234,0.11328 -0.0352,0.22266 -0.008,0.10937 -0.008,0.20312 0,0.55078 0.33593,0.86719 0.33594,0.3125 0.95313,0.3125 0.42969,0 0.88281,-0.16797 0.45703,-0.16797 0.76563,-0.37891 h 0.043 l -0.16016,0.79297 q -0.19531,0.0703 -0.35156,0.12891 -0.15625,0.0586 -0.39844,0.11719 -0.24219,0.0586 -0.42969,0.0898 -0.1875,0.0312 -0.46875,0.0312 z"
         style="font-style:italic;font-variant:normal;font-weight:normal;font-stretch:normal;font-size:8px;font-family:'Terminal Greek 737 (437G)';-inkscape-font-specification:'Terminal Greek 737 (437G) Italic';letter-spacing:1.52999997px;fill:#ffffff;fill-opacity:1;stroke:none;stroke-width:0.28433824;stroke-miterlimit:4;stroke-dasharray:none;stroke-opacity:1"
         id="path4526" />
      <path
         d="m 194.20984,735.20024 h -0.0391 q -0.15625,-0.0391 -0.29297,-0.0547 -0.13281,-0.0195 -0.32422,-0.0195 -0.36718,0 -0.73047,0.16796 -0.35937,0.16407 -0.6914,0.39844 l -0.70313,3.09766 h -0.74218 l 0.99609,-4.36328 h 0.74219 l -0.14844,0.64453 q 0.51953,-0.36328 0.87891,-0.50391 0.36328,-0.14062 0.69531,-0.14062 0.1914,0 0.27734,0.0117 0.0859,0.008 0.25,0.0351 z"
         style="font-style:italic;font-variant:normal;font-weight:normal;font-stretch:normal;font-size:8px;font-family:'Terminal Greek 737 (437G)';-inkscape-font-specification:'Terminal Greek 737 (437G) Italic';letter-spacing:1.52999997px;fill:#ffffff;fill-opacity:1;stroke:none;stroke-width:0.28433824;stroke-miterlimit:4;stroke-dasharray:none;stroke-opacity:1"
         id="path4528" />
      <path
         d="m 199.16953,736.13384 q 0.0195,-0.11328 0.0273,-0.19141 0.008,-0.0781 0.008,-0.17187 0,-0.41797 -0.23047,-0.65235 -0.22656,-0.23437 -0.73047,-0.23437 -0.55469,0 -0.98438,0.34375 -0.42968,0.34375 -0.58203,0.90625 z m -1.46875,2.75781 q -0.90625,0 -1.42187,-0.42578 -0.51563,-0.42578 -0.51563,-1.24609 0,-1.19922 0.75781,-2.05469 0.75782,-0.85938 1.875,-0.85938 0.74219,0 1.13672,0.3711 0.39453,0.36718 0.39453,1.03515 0,0.11719 -0.0351,0.3711 -0.0312,0.2539 -0.10547,0.58984 h -3.21485 q -0.0234,0.11328 -0.0351,0.22266 -0.008,0.10937 -0.008,0.20312 0,0.55078 0.33593,0.86719 0.33594,0.3125 0.95313,0.3125 0.42969,0 0.88281,-0.16797 0.45703,-0.16797 0.76563,-0.37891 h 0.043 l -0.16015,0.79297 q -0.19531,0.0703 -0.35156,0.12891 -0.15625,0.0586 -0.39844,0.11719 -0.24219,0.0586 -0.42969,0.0898 -0.1875,0.0312 -0.46875,0.0312 z"
         style="font-style:italic;font-variant:normal;font-weight:normal;font-stretch:normal;font-size:8px;font-family:'Terminal Greek 737 (437G)';-inkscape-font-specification:'Terminal Greek 737 (437G) Italic';letter-spacing:1.52999997px;fill:#ffffff;fill-opacity:1;stroke:none;stroke-width:0.28433824;stroke-miterlimit:4;stroke-dasharray:none;stroke-opacity:1"
         id="path4530" />
      <path
         d="m 206.66047,734.42681 -2.77344,4.36328 h -0.73047 l -0.74609,-4.36328 h 0.75 l 0.55078,3.47265 2.14063,-3.47265 z"
         style="font-style:italic;font-variant:normal;font-weight:normal;font-stretch:normal;font-size:8px;font-family:'Terminal Greek 737 (437G)';-inkscape-font-specification:'Terminal Greek 737 (437G) Italic';letter-spacing:1.52999997px;fill:#ffffff;fill-opacity:1;stroke:none;stroke-width:0.28433824;stroke-miterlimit:4;stroke-dasharray:none;stroke-opacity:1"
         id="path4532" />
      <path
         d="m 211.72953,736.13384 q 0.0195,-0.11328 0.0273,-0.19141 0.008,-0.0781 0.008,-0.17187 0,-0.41797 -0.23047,-0.65235 -0.22656,-0.23437 -0.73047,-0.23437 -0.55469,0 -0.98438,0.34375 -0.42968,0.34375 -0.58203,0.90625 z m -1.46875,2.75781 q -0.90625,0 -1.42187,-0.42578 -0.51563,-0.42578 -0.51563,-1.24609 0,-1.19922 0.75781,-2.05469 0.75782,-0.85938 1.875,-0.85938 0.74219,0 1.13672,0.3711 0.39453,0.36718 0.39453,1.03515 0,0.11719 -0.0351,0.3711 -0.0312,0.2539 -0.10547,0.58984 h -3.21485 q -0.0234,0.11328 -0.0351,0.22266 -0.008,0.10937 -0.008,0.20312 0,0.55078 0.33593,0.86719 0.33594,0.3125 0.95313,0.3125 0.42969,0 0.88281,-0.16797 0.45703,-0.16797 0.76563,-0.37891 h 0.043 l -0.16015,0.79297 q -0.19531,0.0703 -0.35156,0.12891 -0.15625,0.0586 -0.39844,0.11719 -0.24219,0.0586 -0.42969,0.0898 -0.1875,0.0312 -0.46875,0.0312 z"
         style="font-style:italic;font-variant:normal;font-weight:normal;font-stretch:normal;font-size:8px;font-family:'Terminal Greek 737 (437G)';-inkscape-font-specification:'Terminal Greek 737 (437G) Italic';letter-spacing:1.52999997px;fill:#ffffff;fill-opacity:1;stroke:none;stroke-width:0.28433824;stroke-miterlimit:4;stroke-dasharray:none;stroke-opacity:1"
         id="path4534" />
      <path
         d="m 218.01734,735.20024 h -0.0391 q -0.15625,-0.0391 -0.29297,-0.0547 -0.13281,-0.0195 -0.32422,-0.0195 -0.36719,0 -0.73047,0.16796 -0.35937,0.16407 -0.6914,0.39844 l -0.70313,3.09766 h -0.74219 l 0.9961,-4.36328 h 0.74219 l -0.14844,0.64453 q 0.51953,-0.36328 0.8789,-0.50391 0.36329,-0.14062 0.69532,-0.14062 0.1914,0 0.27734,0.0117 0.0859,0.008 0.25,0.0351 z"
         style="font-style:italic;font-variant:normal;font-weight:normal;font-stretch:normal;font-size:8px;font-family:'Terminal Greek 737 (437G)';-inkscape-font-specification:'Terminal Greek 737 (437G) Italic';letter-spacing:1.52999997px;fill:#ffffff;fill-opacity:1;stroke:none;stroke-width:0.28433824;stroke-miterlimit:4;stroke-dasharray:none;stroke-opacity:1"
         id="path4536" />
      <path
         d="m 229.28437,732.97368 -2.78515,3.26563 -0.58985,2.55078 h -0.78125 l 0.57032,-2.46875 -1.29688,-3.34766 h 0.82813 l 1.00781,2.61328 2.19922,-2.61328 z"
         style="font-style:italic;font-variant:normal;font-weight:normal;font-stretch:normal;font-size:8px;font-family:'Terminal Greek 737 (437G)';-inkscape-font-specification:'Terminal Greek 737 (437G) Italic';letter-spacing:1.52999997px;fill:#ffffff;fill-opacity:1;stroke:none;stroke-width:0.28433824;stroke-miterlimit:4;stroke-dasharray:none;stroke-opacity:1"
         id="path4538" />
      <path
         d="m 234.52922,735.96978 q 0,0.58593 -0.17969,1.125 -0.17968,0.53906 -0.50781,0.9375 -0.33984,0.41406 -0.78516,0.64843 -0.44531,0.23047 -1.03906,0.23047 -0.77734,0 -1.21484,-0.4414 -0.4336,-0.44532 -0.4336,-1.22657 0,-0.58593 0.17579,-1.11718 0.17968,-0.53125 0.51562,-0.94532 0.32422,-0.39843 0.79297,-0.63672 0.47266,-0.23828 1.03125,-0.23828 0.75391,0 1.19922,0.42969 0.44531,0.42969 0.44531,1.23438 z m -1.19531,1.64843 q 0.21094,-0.3125 0.32031,-0.72265 0.11328,-0.41016 0.11328,-0.86719 0,-0.54688 -0.26172,-0.82813 -0.26172,-0.28125 -0.73828,-0.28125 -0.3789,0 -0.67969,0.1836 -0.30078,0.17969 -0.51953,0.49609 -0.21093,0.3086 -0.32422,0.72266 -0.11328,0.41406 -0.11328,0.85937 0,0.53907 0.26172,0.82813 0.26172,0.28906 0.74219,0.28906 0.375,0 0.67969,-0.17969 0.30468,-0.17968 0.51953,-0.5 z"
         style="font-style:italic;font-variant:normal;font-weight:normal;font-stretch:normal;font-size:8px;font-family:'Terminal Greek 737 (437G)';-inkscape-font-specification:'Terminal Greek 737 (437G) Italic';letter-spacing:1.52999997px;fill:#ffffff;fill-opacity:1;stroke:none;stroke-width:0.28433824;stroke-miterlimit:4;stroke-dasharray:none;stroke-opacity:1"
         id="path4540" />
      <path
         d="m 241.25453,734.42681 -1.00781,4.36328 h -0.73438 l 0.11329,-0.48438 q -0.41797,0.28516 -0.78125,0.44532 -0.35938,0.16015 -0.76172,0.16015 -0.5625,0 -0.87891,-0.28125 -0.31641,-0.28515 -0.31641,-0.82812 0,-0.13282 0.0156,-0.25782 0.0195,-0.125 0.0508,-0.28515 l 0.65234,-2.83203 h 0.73438 l -0.57422,2.48437 q -0.0352,0.15235 -0.0664,0.34766 -0.0312,0.19531 -0.0312,0.30859 0,0.33594 0.16797,0.50391 0.17188,0.16797 0.58203,0.16797 0.28907,0 0.66016,-0.16797 0.375,-0.16797 0.69141,-0.38672 l 0.75,-3.25781 z"
         style="font-style:italic;font-variant:normal;font-weight:normal;font-stretch:normal;font-size:8px;font-family:'Terminal Greek 737 (437G)';-inkscape-font-specification:'Terminal Greek 737 (437G) Italic';letter-spacing:1.52999997px;fill:#ffffff;fill-opacity:1;stroke:none;stroke-width:0.28433824;stroke-miterlimit:4;stroke-dasharray:none;stroke-opacity:1"
         id="path4542" />
      <path
         d="m 251.93562,735.4229 q 0,0.0937 -0.0195,0.25391 -0.0156,0.16015 -0.0469,0.28125 l -0.65625,2.83203 h -0.73438 l 0.57422,-2.48438 q 0.0469,-0.20703 0.0703,-0.35937 0.0274,-0.15625 0.0274,-0.3086 0,-0.32812 -0.16407,-0.49218 -0.16015,-0.16797 -0.58203,-0.16797 -0.29687,0 -0.65625,0.16406 -0.35547,0.16406 -0.69531,0.39063 l -0.75391,3.25781 h -0.73437 l 1.00781,-4.36328 h 0.73438 l -0.11328,0.48437 q 0.41796,-0.29297 0.78125,-0.44922 0.36718,-0.15625 0.7539,-0.15625 0.57031,0 0.88672,0.28907 0.32031,0.28515 0.32031,0.82812 z"
         style="font-style:italic;font-variant:normal;font-weight:normal;font-stretch:normal;font-size:8px;font-family:'Terminal Greek 737 (437G)';-inkscape-font-specification:'Terminal Greek 737 (437G) Italic';letter-spacing:1.52999997px;fill:#ffffff;fill-opacity:1;stroke:none;stroke-width:0.28433824;stroke-miterlimit:4;stroke-dasharray:none;stroke-opacity:1"
         id="path4544" />
      <path
         d="m 257.68828,736.13384 q 0.0195,-0.11328 0.0273,-0.19141 0.008,-0.0781 0.008,-0.17187 0,-0.41797 -0.23046,-0.65235 -0.22657,-0.23437 -0.73047,-0.23437 -0.55469,0 -0.98438,0.34375 -0.42969,0.34375 -0.58203,0.90625 z m -1.46875,2.75781 q -0.90625,0 -1.42188,-0.42578 -0.51562,-0.42578 -0.51562,-1.24609 0,-1.19922 0.75781,-2.05469 0.75781,-0.85938 1.875,-0.85938 0.74219,0 1.13672,0.3711 0.39453,0.36718 0.39453,1.03515 0,0.11719 -0.0352,0.3711 -0.0312,0.2539 -0.10546,0.58984 h -3.21485 q -0.0234,0.11328 -0.0351,0.22266 -0.008,0.10937 -0.008,0.20312 0,0.55078 0.33594,0.86719 0.33594,0.3125 0.95313,0.3125 0.42968,0 0.88281,-0.16797 0.45703,-0.16797 0.76562,-0.37891 h 0.043 l -0.16015,0.79297 q -0.19532,0.0703 -0.35157,0.12891 -0.15625,0.0586 -0.39843,0.11719 -0.24219,0.0586 -0.42969,0.0898 -0.1875,0.0312 -0.46875,0.0312 z"
         style="font-style:italic;font-variant:normal;font-weight:normal;font-stretch:normal;font-size:8px;font-family:'Terminal Greek 737 (437G)';-inkscape-font-specification:'Terminal Greek 737 (437G) Italic';letter-spacing:1.52999997px;fill:#ffffff;fill-opacity:1;stroke:none;stroke-width:0.28433824;stroke-miterlimit:4;stroke-dasharray:none;stroke-opacity:1"
         id="path4546" />
      <path
         d="m 263.9839,736.13384 q 0.0195,-0.11328 0.0274,-0.19141 0.008,-0.0781 0.008,-0.17187 0,-0.41797 -0.23047,-0.65235 -0.22656,-0.23437 -0.73047,-0.23437 -0.55469,0 -0.98437,0.34375 -0.42969,0.34375 -0.58204,0.90625 z m -1.46875,2.75781 q -0.90625,0 -1.42187,-0.42578 -0.51563,-0.42578 -0.51563,-1.24609 0,-1.19922 0.75781,-2.05469 0.75782,-0.85938 1.875,-0.85938 0.74219,0 1.13672,0.3711 0.39453,0.36718 0.39453,1.03515 0,0.11719 -0.0351,0.3711 -0.0312,0.2539 -0.10547,0.58984 h -3.21484 q -0.0234,0.11328 -0.0352,0.22266 -0.008,0.10937 -0.008,0.20312 0,0.55078 0.33593,0.86719 0.33594,0.3125 0.95313,0.3125 0.42969,0 0.88281,-0.16797 0.45703,-0.16797 0.76563,-0.37891 h 0.043 l -0.16016,0.79297 q -0.19531,0.0703 -0.35156,0.12891 -0.15625,0.0586 -0.39844,0.11719 -0.24219,0.0586 -0.42969,0.0898 -0.1875,0.0312 -0.46875,0.0312 z"
         style="font-style:italic;font-variant:normal;font-weight:normal;font-stretch:normal;font-size:8px;font-family:'Terminal Greek 737 (437G)';-inkscape-font-specification:'Terminal Greek 737 (437G) Italic';letter-spacing:1.52999997px;fill:#ffffff;fill-opacity:1;stroke:none;stroke-width:0.28433824;stroke-miterlimit:4;stroke-dasharray:none;stroke-opacity:1"
         id="path4548" />
      <path
         d="m 271.6936,732.71196 -1.40625,6.07813 h -0.73438 l 0.10547,-0.45703 q -0.49609,0.33984 -0.80078,0.45703 -0.30078,0.12109 -0.65625,0.12109 -0.61719,0 -0.98047,-0.39062 -0.35938,-0.39063 -0.35938,-1.13672 0,-0.62891 0.19532,-1.1875 0.19531,-0.5625 0.53125,-0.98438 0.33203,-0.41797 0.78515,-0.66015 0.45313,-0.2461 0.96094,-0.2461 0.34766,0 0.64063,0.0742 0.29296,0.0742 0.54687,0.22266 l 0.4375,-1.89063 z m -1.3125,2.5 q -0.26172,-0.13672 -0.51563,-0.19922 -0.25,-0.0664 -0.53516,-0.0664 -0.40625,0 -0.72656,0.19531 -0.3164,0.19531 -0.54297,0.53516 -0.20703,0.30859 -0.32031,0.74218 -0.10937,0.4336 -0.10937,0.83985 0,0.47656 0.20312,0.73047 0.20703,0.25 0.66797,0.25 0.32812,0 0.66797,-0.16407 0.34375,-0.16406 0.63281,-0.35937 z"
         style="font-style:italic;font-variant:normal;font-weight:normal;font-stretch:normal;font-size:8px;font-family:'Terminal Greek 737 (437G)';-inkscape-font-specification:'Terminal Greek 737 (437G) Italic';letter-spacing:1.52999997px;fill:#ffffff;fill-opacity:1;stroke:none;stroke-width:0.28433824;stroke-miterlimit:4;stroke-dasharray:none;stroke-opacity:1"
         id="path4550" />
      <path
         d="m 280.87859,734.42681 -0.13281,0.59375 h -1.51562 l -0.46875,2.01172 q -0.0391,0.15234 -0.0703,0.35156 -0.0312,0.19531 -0.0312,0.3125 0,0.28515 0.14453,0.42578 0.14454,0.13672 0.53516,0.13672 0.16016,0 0.37891,-0.0547 0.22265,-0.0547 0.30078,-0.0859 h 0.0391 l -0.13672,0.63282 q -0.21875,0.0547 -0.46875,0.0898 -0.24609,0.0352 -0.4375,0.0352 -0.53906,0 -0.83594,-0.23438 -0.29296,-0.23828 -0.29296,-0.75 0,-0.125 0.0156,-0.24609 0.0195,-0.125 0.0508,-0.28125 l 0.54297,-2.34375 h -0.49609 l 0.13281,-0.59375 h 0.49609 l 0.29297,-1.25391 h 0.73438 l -0.29297,1.25391 z"
         style="font-style:italic;font-variant:normal;font-weight:normal;font-stretch:normal;font-size:8px;font-family:'Terminal Greek 737 (437G)';-inkscape-font-specification:'Terminal Greek 737 (437G) Italic';letter-spacing:1.52999997px;fill:#ffffff;fill-opacity:1;stroke:none;stroke-width:0.28433824;stroke-miterlimit:4;stroke-dasharray:none;stroke-opacity:1"
         id="path4552" />
      <path
         d="m 286.58047,735.96978 q 0,0.58593 -0.17969,1.125 -0.17969,0.53906 -0.50781,0.9375 -0.33985,0.41406 -0.78516,0.64843 -0.44531,0.23047 -1.03906,0.23047 -0.77735,0 -1.21485,-0.4414 -0.43359,-0.44532 -0.43359,-1.22657 0,-0.58593 0.17578,-1.11718 0.17969,-0.53125 0.51563,-0.94532 0.32422,-0.39843 0.79297,-0.63672 0.47265,-0.23828 1.03125,-0.23828 0.7539,0 1.19921,0.42969 0.44532,0.42969 0.44532,1.23438 z m -1.19532,1.64843 q 0.21094,-0.3125 0.32032,-0.72265 0.11328,-0.41016 0.11328,-0.86719 0,-0.54688 -0.26172,-0.82813 -0.26172,-0.28125 -0.73828,-0.28125 -0.37891,0 -0.67969,0.1836 -0.30078,0.17969 -0.51953,0.49609 -0.21094,0.3086 -0.32422,0.72266 -0.11328,0.41406 -0.11328,0.85937 0,0.53907 0.26172,0.82813 0.26172,0.28906 0.74219,0.28906 0.375,0 0.67968,-0.17969 0.30469,-0.17968 0.51953,-0.5 z"
         style="font-style:italic;font-variant:normal;font-weight:normal;font-stretch:normal;font-size:8px;font-family:'Terminal Greek 737 (437G)';-inkscape-font-specification:'Terminal Greek 737 (437G) Italic';letter-spacing:1.52999997px;fill:#ffffff;fill-opacity:1;stroke:none;stroke-width:0.28433824;stroke-miterlimit:4;stroke-dasharray:none;stroke-opacity:1"
         id="path4554" />
      <path
         d="m 297.55843,734.42681 -0.88672,3.8789 q -0.25781,1.10938 -0.84765,1.6211 -0.58594,0.51562 -1.63281,0.51562 -0.33594,0 -0.67969,-0.0508 -0.33985,-0.0508 -0.625,-0.13672 l 0.16797,-0.73047 h 0.0391 q 0.21875,0.0977 0.58984,0.1875 0.3711,0.0899 0.69922,0.0899 0.3711,0 0.62891,-0.0977 0.26172,-0.0937 0.42969,-0.25781 0.16406,-0.16406 0.26562,-0.38281 0.10547,-0.21485 0.16406,-0.48438 l 0.0899,-0.38281 q -0.39453,0.26562 -0.69532,0.39844 -0.30078,0.1289 -0.76953,0.1289 -0.63672,0 -0.99609,-0.38672 -0.35938,-0.39062 -0.35938,-1.09765 0,-0.56641 0.1836,-1.09766 0.1875,-0.53516 0.51953,-0.94922 0.32422,-0.40234 0.77734,-0.64453 0.45703,-0.24219 0.97657,-0.24219 0.375,0 0.66796,0.0859 0.29688,0.0859 0.51563,0.22266 l 0.0898,-0.1875 z m -0.91406,0.78515 q -0.25,-0.1289 -0.51562,-0.19922 -0.26172,-0.0742 -0.53125,-0.0742 -0.38282,0 -0.69922,0.17578 -0.3125,0.17187 -0.53907,0.48047 -0.21484,0.28906 -0.33593,0.69921 -0.11719,0.40625 -0.11719,0.8125 0,0.46094 0.21094,0.71485 0.21093,0.25 0.67578,0.25 0.32422,0 0.65625,-0.13672 0.33203,-0.13672 0.65234,-0.34375 z"
         style="font-style:italic;font-variant:normal;font-weight:normal;font-stretch:normal;font-size:8px;font-family:'Terminal Greek 737 (437G)';-inkscape-font-specification:'Terminal Greek 737 (437G) Italic';letter-spacing:1.52999997px;fill:#ffffff;fill-opacity:1;stroke:none;stroke-width:0.28433824;stroke-miterlimit:4;stroke-dasharray:none;stroke-opacity:1"
         id="path4556" />
      <path
         d="m 303.8111,735.96978 q 0,0.58593 -0.17969,1.125 -0.17969,0.53906 -0.50781,0.9375 -0.33985,0.41406 -0.78516,0.64843 -0.44531,0.23047 -1.03906,0.23047 -0.77735,0 -1.21485,-0.4414 -0.43359,-0.44532 -0.43359,-1.22657 0,-0.58593 0.17578,-1.11718 0.17969,-0.53125 0.51563,-0.94532 0.32421,-0.39843 0.79296,-0.63672 0.47266,-0.23828 1.03125,-0.23828 0.75391,0 1.19922,0.42969 0.44532,0.42969 0.44532,1.23438 z m -1.19532,1.64843 q 0.21094,-0.3125 0.32032,-0.72265 0.11328,-0.41016 0.11328,-0.86719 0,-0.54688 -0.26172,-0.82813 -0.26172,-0.28125 -0.73828,-0.28125 -0.37891,0 -0.67969,0.1836 -0.30078,0.17969 -0.51953,0.49609 -0.21094,0.3086 -0.32422,0.72266 -0.11328,0.41406 -0.11328,0.85937 0,0.53907 0.26172,0.82813 0.26172,0.28906 0.74218,0.28906 0.375,0 0.67969,-0.17969 0.30469,-0.17968 0.51953,-0.5 z"
         style="font-style:italic;font-variant:normal;font-weight:normal;font-stretch:normal;font-size:8px;font-family:'Terminal Greek 737 (437G)';-inkscape-font-specification:'Terminal Greek 737 (437G) Italic';letter-spacing:1.52999997px;fill:#ffffff;fill-opacity:1;stroke:none;stroke-width:0.28433824;stroke-miterlimit:4;stroke-dasharray:none;stroke-opacity:1"
         id="path4558" />
    </g>
  </g>
</svg>
