<?xml version="1.0" encoding="UTF-8" standalone="no"?>
<!-- Created with Inkscape (http://www.inkscape.org/) -->

<svg
   xmlns:dc="http://purl.org/dc/elements/1.1/"
   xmlns:cc="http://creativecommons.org/ns#"
   xmlns:rdf="http://www.w3.org/1999/02/22-rdf-syntax-ns#"
   xmlns:svg="http://www.w3.org/2000/svg"
   xmlns="http://www.w3.org/2000/svg"
   xmlns:sodipodi="http://sodipodi.sourceforge.net/DTD/sodipodi-0.dtd"
   xmlns:inkscape="http://www.inkscape.org/namespaces/inkscape"
   width="18.499779mm"
   height="17.598141mm"
   viewBox="0 0 18.499779 17.598141"
   version="1.1"
   id="svg8"
   inkscape:version="0.92.1 r15371"
   sodipodi:docname="black-star.svg">
  <defs
     id="defs2" />
  <sodipodi:namedview
     id="base"
     pagecolor="#ffffff"
     bordercolor="#666666"
     borderopacity="1.0"
     inkscape:pageopacity="0.0"
     inkscape:pageshadow="2"
     inkscape:zoom="0.98994949"
     inkscape:cx="-223.67773"
     inkscape:cy="157.34268"
     inkscape:document-units="mm"
     inkscape:current-layer="layer1"
     showgrid="false"
     inkscape:window-width="2400"
     inkscape:window-height="1284"
     inkscape:window-x="-9"
     inkscape:window-y="-9"
     inkscape:window-maximized="1" />
  <metadata
     id="metadata5">
    <rdf:RDF>
      <cc:Work
         rdf:about="">
        <dc:format>image/svg+xml</dc:format>
        <dc:type
           rdf:resource="http://purl.org/dc/dcmitype/StillImage" />
        <dc:title></dc:title>
      </cc:Work>
    </rdf:RDF>
  </metadata>
  <g
     inkscape:label="Layer 1"
     inkscape:groupmode="layer"
     id="layer1"
     transform="translate(-25.271939,-191.35915)">
    <path
       style="display:inline;opacity:1;fill:#000000;fill-opacity:1;fill-rule:nonzero;stroke:none;stroke-width:0.41727445;stroke-linecap:square;stroke-linejoin:miter;stroke-miterlimit:4;stroke-dasharray:none;stroke-dashoffset:0;stroke-opacity:1;paint-order:fill markers stroke"
       d="m 38.173221,202.66031 c -0.339612,0.23871 -0.695118,0.48793 -1.026756,0.72142 0.301381,0.90394 0.576632,1.72864 0.878805,2.63612 -0.818216,-0.5804 -1.540605,-1.0908 -2.304463,-1.63182 -0.329669,0.23233 -0.671705,0.47388 -1.00597,0.70965 0.0019,0.001 0.003,0.003 0.0046,0.005 8.24e-4,3.8e-4 0.0016,7.5e-4 0.0024,10e-4 0.0022,0.002 0.0038,0.003 0.0057,0.004 0.0016,0.001 0.0032,0.003 0.0047,0.003 0.0016,0.001 0.0032,0.003 0.0047,0.004 0.0013,10e-4 0.0024,0.002 0.0035,0.003 5.24e-4,2.7e-4 0.0016,0.001 0.0022,0.001 0.0013,0.001 0.0011,7.5e-4 0.0027,0.002 1.43e-4,7e-5 1.43e-4,2.2e-4 2.71e-4,2.7e-4 1.43e-4,7e-5 1.43e-4,2.2e-4 2.71e-4,2.7e-4 l 8.24e-4,-3.7e-4 5.509192,3.83844 -2.07025,-6.26099 0.0011,-7.5e-4 c -0.0016,-0.003 -0.0032,-0.007 -0.0042,-0.0109 -2.17e-4,-7.4e-4 -2.71e-4,-0.001 -5.24e-4,-0.003 -2.17e-4,-10e-4 -5.24e-4,-0.002 -8.24e-4,-0.003 -2.71e-4,-0.002 -5.24e-4,-0.003 -0.0011,-0.004 -2.17e-4,-7.4e-4 -5.24e-4,-0.002 -8.24e-4,-0.003 -6.8e-5,-2.7e-4 -1.44e-4,-3.7e-4 -2.71e-4,-0.001 -2.17e-4,-3.7e-4 -5.24e-4,-7.5e-4 -8.24e-4,-0.001 -8.23e-4,-0.002 -0.0013,-0.003 -0.0022,-0.004 -8.23e-4,-0.002 -0.0016,-0.003 -0.0024,-0.005 -2.72e-4,-3.7e-4 -5.25e-4,-0.001 -8.24e-4,-0.002 z"
       id="path7501-15"
       inkscape:connector-curvature="0"
       inkscape:export-filename="D:\WYCIECZKI PRZEWODNICKIE (PRACA)\StarTravel\logo\nowe logo strona.png"
       inkscape:export-xdpi="300.01999"
       inkscape:export-ydpi="300.01999" />
    <path
       style="display:inline;opacity:1;fill:#000000;fill-opacity:1;fill-rule:nonzero;stroke:none;stroke-width:0.42620453;stroke-linecap:square;stroke-linejoin:miter;stroke-miterlimit:4;stroke-dasharray:none;stroke-dashoffset:0;stroke-opacity:1;paint-order:fill markers stroke"
       d="m 32.315255,197.66871 c 0.435493,0.001 0.890955,0.003 1.316467,0.004 0.318273,-0.9069 0.608405,-1.73446 0.928245,-2.64468 0.319385,0.94094 0.602645,1.77004 0.901334,2.64781 0.423126,7.5e-4 0.862447,0.001 1.291603,0.001 -5.24e-4,-0.003 -5.24e-4,-0.004 -5.24e-4,-0.007 -2.14e-4,-7.5e-4 -8.24e-4,-0.001 -0.0011,-0.003 -8.24e-4,-0.003 -0.0016,-0.004 -0.0024,-0.006 -8.24e-4,-0.002 -0.0011,-0.004 -0.0019,-0.005 -5.24e-4,-0.002 -8.23e-4,-0.004 -0.0016,-0.006 -5.24e-4,-0.001 -5.24e-4,-0.003 -0.0011,-0.005 -2.14e-4,-3.7e-4 -8.23e-4,-0.002 -5.24e-4,-0.003 -5.24e-4,-0.001 -5.24e-4,-0.001 -8.24e-4,-0.003 -7e-5,-1.3e-4 1.1e-5,-2.4e-4 -6.2e-5,-2.5e-4 -7.3e-5,-1.4e-4 8e-6,-2.4e-4 -6.5e-5,-2.6e-4 l -0.0011,-5e-5 -2.194212,-6.27913 -2.218885,6.27157 -0.0013,2e-5 c -8.24e-4,0.003 -0.0016,0.007 -0.0034,0.0112 -2.71e-4,7.5e-4 -5.24e-4,0.001 -0.0011,0.003 -2.71e-4,0.001 -8.24e-4,0.002 -0.0013,0.003 -5.24e-4,0.001 -0.0013,0.003 -0.0019,0.004 -2.72e-4,7.5e-4 -5.25e-4,0.002 -0.0011,0.003 -1.01e-4,2.5e-4 -2.09e-4,3.7e-4 -2.72e-4,10e-4 -1.43e-4,3.7e-4 -4.9e-5,0.001 -1.52e-4,0.001 -1.43e-4,0.001 -8.23e-4,0.003 -8.23e-4,0.004 -2.71e-4,0.002 -8.24e-4,0.003 -0.0011,0.005 -9.2e-5,3.8e-4 -2.71e-4,0.001 -2.71e-4,0.002 z"
       id="path7501-1-4"
       inkscape:connector-curvature="0"
       inkscape:export-filename="D:\WYCIECZKI PRZEWODNICKIE (PRACA)\StarTravel\logo\nowe logo strona.png"
       inkscape:export-xdpi="300.01999"
       inkscape:export-ydpi="300.01999" />
    <path
       style="display:inline;opacity:1;fill:#000000;fill-opacity:1;fill-rule:nonzero;stroke:none;stroke-width:0.3072733;stroke-linecap:square;stroke-linejoin:miter;stroke-miterlimit:4;stroke-dasharray:none;stroke-dashoffset:0;stroke-opacity:1;paint-order:fill markers stroke"
       d="m 39.023016,199.53438 c -10.582833,-0.86632 0,0 -10.582833,-0.86632 l 8.292895,1.58327 -6.44432,6.63813 z"
       id="path5124-9-5-3"
       inkscape:connector-curvature="0"
       sodipodi:nodetypes="cccccc"
       inkscape:export-filename="D:\WYCIECZKI PRZEWODNICKIE (PRACA)\StarTravel\logo\nowe logo strona.png"
       inkscape:export-xdpi="300.01999"
       inkscape:export-ydpi="300.01999" />
    <path
       style="display:inline;opacity:1;fill:#000000;fill-opacity:1;fill-rule:nonzero;stroke:none;stroke-width:0.30000001;stroke-linecap:square;stroke-linejoin:miter;stroke-miterlimit:4;stroke-dasharray:none;stroke-dashoffset:0;stroke-opacity:0;paint-order:fill markers stroke"
       d="m 43.771718,198.04329 c -6.367819,0 0,0 -18.499779,0.007 l 14.782367,1.20262 -11.245282,9.67009 c 14.962694,-10.87945 9.702231,-7.07012 14.962694,-10.87945 z"
       id="path5124-9-5"
       inkscape:connector-curvature="0"
       sodipodi:nodetypes="ccccc"
       inkscape:export-filename="D:\WYCIECZKI PRZEWODNICKIE (PRACA)\StarTravel\logo\nowe logo strona.png"
       inkscape:export-xdpi="300.01999"
       inkscape:export-ydpi="300.01999" />
  </g>
</svg>
